<svg viewBox="0 0 600 200" fill="none" xmlns="http://www.w3.org/2000/svg">
<path d="M48.95 150.41C48.5167 150.41 48.04 150.237 47.52 149.89C47.0867 149.63 46.6967 149.24 46.35 148.72C45.6567 148.113 45.0933 147.377 44.66 146.51C44.2267 145.643 44.01 144.343 44.01 142.61C44.01 139.577 44.9633 135.2 46.87 129.48C47.4767 127.053 48.1267 124.713 48.82 122.46C49.4267 120.9 49.73 119.73 49.73 118.95C49.73 118.257 49.8167 117.477 49.99 116.61C50.25 115.657 50.38 115.007 50.38 114.66C51.42 114.66 52.3733 112.883 53.24 109.33C53.5867 108.03 53.89 106.947 54.15 106.08C54.41 105.127 54.5833 104.39 54.67 103.87C54.8433 103.61 55.0167 103.22 55.19 102.7C55.45 102.18 55.6667 101.703 55.84 101.27C56.5333 99.19 57.3567 97.1967 58.31 95.29C59.35 91.39 60.5633 87.3167 61.95 83.07C63.4233 78.7367 64.6367 75.53 65.59 73.45L67.15 69.55C67.2367 69.29 67.41 68.8133 67.67 68.12C68.0167 67.34 68.19 66.7767 68.19 66.43C68.19 66.0833 68.06 65.8233 67.8 65.65C67.1933 65.2167 66.89 64.35 66.89 63.05C66.89 60.8833 67.7133 59.1067 69.36 57.72C70.3133 56.5933 71.57 55.8133 73.13 55.38C74.7767 54.86 76.7267 54.6 78.98 54.6C79.9333 54.6 81.6233 54.6867 84.05 54.86C85.09 54.9467 87.8633 54.99 92.37 54.99C92.89 55.25 93.8433 55.64 95.23 56.16C98.1767 57.3733 99.65 58.11 99.65 58.37C99.65 58.8033 99.78 59.1067 100.04 59.28C100.387 59.4533 100.863 59.5833 101.47 59.67C102.423 59.67 104.113 60.84 106.54 63.18C109.053 65.52 110.787 67.6867 111.74 69.68C112.52 71.24 113.04 72.4533 113.3 73.32C113.647 74.1867 113.82 75.27 113.82 76.57C113.82 77.09 113.733 78.0433 113.56 79.43C113.387 80.8167 113.17 82.16 112.91 83.46C112.65 84.76 112.347 85.5833 112 85.93C110.613 86.97 109.92 87.88 109.92 88.66C109.92 89.5267 108.663 91.9533 106.15 95.94C103.637 99.9267 101.427 102.83 99.52 104.65C97.2667 107.25 94.58 109.547 91.46 111.54C87.82 113.187 83.7033 114.617 79.11 115.83C74.6033 117.043 71.18 117.607 68.84 117.52C66.0667 117.953 64.3333 118.343 63.64 118.69C63.0333 118.95 62.5567 119.643 62.21 120.77C61.7767 121.983 61.3433 123.197 60.91 124.41C60.5633 125.623 60.39 126.447 60.39 126.88C59.87 127.833 58.7867 130.737 57.14 135.59C55.58 140.443 54.4967 144.17 53.89 146.77C53.5433 147.897 52.85 148.763 51.81 149.37C50.77 150.063 49.8167 150.41 48.95 150.41ZM67.41 106.99C67.5833 107.163 68.06 107.25 68.84 107.25C71.0933 107.25 74.04 106.557 77.68 105.17C80.8 104.13 84.2667 102.44 88.08 100.1C89.9867 98.8 92.24 96.5033 94.84 93.21C95.36 92.3433 96.4 90.3067 97.96 87.1C98.6533 85.8867 99.3033 84.3267 99.91 82.42C100.603 80.5133 100.95 78.8233 100.95 77.35C100.95 76.6567 100.907 76.1367 100.82 75.79C99.9533 71.2833 97.44 68.2933 93.28 66.82C90.5067 66.3867 88.5567 66.17 87.43 66.17C86.8233 66.17 85.8267 66.2567 84.44 66.43C83.0533 66.8633 82.0567 67.47 81.45 68.25C80.93 68.9433 80.15 70.59 79.11 73.19C76.3367 78.4767 74.5167 82.29 73.65 84.63C72.0033 90.5233 70.5733 95.0733 69.36 98.28C68.1467 101.4 67.4533 103.22 67.28 103.74V104.26C67.28 104.78 67.2367 105.3 67.15 105.82C67.0633 106.34 67.15 106.73 67.41 106.99ZM123.51 88.66C122.643 88.0533 121.95 87.2733 121.43 86.32C120.91 85.3667 120.607 84.4567 120.52 83.59C120.433 82.7233 120.52 82.2033 120.78 82.03C121.3 81.4233 121.82 80.6 122.34 79.56C122.86 78.52 123.25 77.7833 123.51 77.35C124.203 75.79 124.767 74.6633 125.2 73.97C125.807 72.7567 126.37 72.1067 126.89 72.02C127.583 71.6733 128.147 71.5 128.58 71.5C129.707 71.5 130.92 71.89 132.22 72.67C133.607 73.45 134.647 74.36 135.34 75.4C135.947 76.7867 136.25 78 136.25 79.04C136.25 81.12 135.253 83.4167 133.26 85.93C132.393 87.0567 131.353 87.9233 130.14 88.53C128.927 89.1367 127.713 89.44 126.5 89.44C125.287 89.44 124.29 89.18 123.51 88.66ZM109.47 140.79C108.257 139.577 107.65 137.41 107.65 134.29C107.65 132.643 107.867 131.387 108.3 130.52C108.3 130.087 108.387 129.567 108.56 128.96C108.733 128.353 108.82 127.963 108.82 127.79C108.733 127.27 109.08 125.84 109.86 123.5C110.9 121.16 112.2 117.563 113.76 112.71C115.407 107.857 116.533 104.39 117.14 102.31C117.14 101.877 117.313 101.53 117.66 101.27C118.007 100.923 118.527 100.707 119.22 100.62C120.173 100.273 121.387 100.707 122.86 101.92C124.333 103.047 125.547 104.347 126.5 105.82C127.02 106.34 127.28 107.033 127.28 107.9C127.28 109.2 126.717 111.02 125.59 113.36C125.157 114.313 124.723 115.483 124.29 116.87C123.943 118.257 123.64 119.557 123.38 120.77C122.34 123.11 121.517 125.277 120.91 127.27C120.65 128.397 120.477 129.263 120.39 129.87C119.783 133.077 119.22 135.157 118.7 136.11C118.18 138.277 117.443 139.923 116.49 141.05C115.537 142.09 114.453 142.61 113.24 142.61C111.767 142.61 110.51 142.003 109.47 140.79ZM170.218 145.47C169.091 145.73 168.008 145.47 166.968 144.69C165.928 143.91 165.148 143 164.628 141.96C164.194 140.747 163.891 139.577 163.718 138.45C163.544 137.237 163.414 135.633 163.328 133.64L163.198 129.22L157.868 134.03C152.408 139.143 147.338 141.7 142.658 141.7C141.271 141.44 139.494 140.27 137.328 138.19C135.248 136.11 133.904 134.333 133.298 132.86C132.951 132.167 132.778 131.083 132.778 129.61C132.778 126.317 133.644 122.373 135.378 117.78C137.111 113.1 139.278 109.33 141.878 106.47C143.784 103.61 146.081 101.443 148.768 99.97C151.454 98.4967 154.184 97.76 156.958 97.76C159.558 97.76 161.854 98.3233 163.848 99.45C165.061 100.057 166.058 100.36 166.838 100.36C167.704 100.36 168.268 99.7967 168.528 98.67C168.614 98.2367 169.134 96.5033 170.088 93.47L171.518 89.31C173.424 83.59 175.071 78.9967 176.458 75.53C177.844 72.0633 179.534 68.25 181.528 64.09C182.394 62.27 183.304 60.9267 184.258 60.06C185.211 59.1933 186.078 58.8033 186.858 58.89C187.984 58.89 189.198 59.28 190.498 60.06C191.884 60.7533 192.794 61.6633 193.228 62.79C193.488 63.3967 193.618 64.1333 193.618 65C193.618 65.9533 193.358 66.95 192.838 67.99C190.584 71.89 187.811 78.26 184.518 87.1C181.224 95.94 178.668 103.61 176.848 110.11C176.154 112.45 175.634 115.7 175.288 119.86C175.028 124.02 174.898 128.093 174.898 132.08C174.898 135.893 175.028 138.277 175.288 139.23C175.461 139.75 175.548 140.443 175.548 141.31C175.548 142.783 175.028 143.78 173.988 144.3C173.034 144.907 171.778 145.297 170.218 145.47ZM148.768 129.74C150.761 128.96 152.971 127.66 155.398 125.84C157.998 123.933 159.861 122.243 160.988 120.77C162.201 119.297 163.154 117.433 163.848 115.18C164.021 114.747 164.108 114.14 164.108 113.36C164.108 111.8 163.371 110.37 161.898 109.07C161.031 108.377 160.034 108.03 158.908 108.03C157.088 108.03 155.181 108.983 153.188 110.89C150.934 112.97 149.114 115.31 147.728 117.91C146.341 120.423 145.171 123.89 144.218 128.31C144.044 128.917 144.131 129.437 144.478 129.87C144.824 130.217 145.388 130.39 146.168 130.39C146.774 130.39 147.641 130.173 148.768 129.74ZM228.632 140.92C226.726 141.787 225.079 142.22 223.692 142.22C221.179 142.22 219.142 141.223 217.582 139.23C216.022 137.237 215.242 134.333 215.242 130.52C215.242 126.707 215.979 122.59 217.452 118.17C217.712 117.563 218.059 116.827 218.492 115.96C218.926 115.093 219.012 114.66 218.752 114.66C218.319 114.66 217.539 115.223 216.412 116.35C212.166 120.163 208.612 124.15 205.752 128.31C202.979 132.383 201.592 135.547 201.592 137.8C201.592 138.753 201.202 139.49 200.422 140.01C199.729 140.53 198.906 140.79 197.952 140.79C197.346 140.79 196.782 140.66 196.262 140.4C194.356 139.273 192.796 137.713 191.582 135.72C190.369 133.64 189.892 131.127 190.152 128.18C190.499 122.2 191.106 116.957 191.972 112.45C192.926 107.857 194.702 101.357 197.302 92.95C197.389 92.69 198.212 90.48 199.772 86.32C202.459 78.6933 203.976 74.5333 204.322 73.84C204.929 73.2333 205.796 71.37 206.922 68.25C208.136 65.0433 208.742 63.0933 208.742 62.4C208.742 61.7067 208.916 61.0567 209.262 60.45C209.696 59.7567 209.956 59.3233 210.042 59.15C210.996 56.9833 211.819 55.9 212.512 55.9C213.292 55.9 214.506 56.42 216.152 57.46C217.886 58.4133 218.882 59.3233 219.142 60.19C219.836 61.5767 220.182 62.8767 220.182 64.09C220.182 65.39 219.836 66.95 219.142 68.77C218.449 70.5033 217.279 72.93 215.632 76.05C213.119 81.0767 210.779 86.84 208.612 93.34C207.572 96.1133 206.316 100.057 204.842 105.17C203.369 110.283 202.632 113.317 202.632 114.27C202.632 114.877 202.936 115.18 203.542 115.18C204.236 115.18 204.972 114.66 205.752 113.62C206.012 113.1 206.576 112.45 207.442 111.67C208.309 110.89 209.002 110.197 209.522 109.59C211.342 107.337 213.422 105.083 215.762 102.83C218.102 100.577 219.879 99.45 221.092 99.45C224.212 99.45 226.552 101.4 228.112 105.3C228.459 105.647 228.719 105.993 228.892 106.34C229.066 106.687 229.239 106.947 229.412 107.12C229.846 107.553 230.062 108.637 230.062 110.37C230.062 113.317 229.369 116.87 227.982 121.03C227.029 124.843 226.552 127.443 226.552 128.83C226.552 129.957 226.856 130.52 227.462 130.52C227.722 130.347 228.242 130.043 229.022 129.61C229.802 129.177 230.712 128.657 231.752 128.05C233.659 126.923 235.176 126.36 236.302 126.36C237.169 126.36 237.819 126.62 238.252 127.14C238.686 127.573 238.902 128.137 238.902 128.83C238.902 129.437 238.599 130.347 237.992 131.56C237.472 132.773 237.212 133.467 237.212 133.64V134.29C237.212 134.637 236.042 135.763 233.702 137.67C231.362 139.577 229.672 140.66 228.632 140.92ZM250.978 141.05C250.371 141.05 249.548 140.617 248.508 139.75C247.555 138.883 246.991 138.103 246.818 137.41C246.731 137.237 246.688 136.847 246.688 136.24C246.688 135.113 247.208 132.903 248.248 129.61L249.158 125.45C250.025 121.637 250.805 118.43 251.498 115.83C251.758 115.31 252.278 113.837 253.058 111.41C253.578 109.503 254.271 107.64 255.138 105.82C256.178 101.92 257.825 98.0633 260.078 94.25C260.338 93.8167 260.771 93.2967 261.378 92.69C261.985 92.0833 262.418 91.78 262.678 91.78C263.198 91.26 263.935 91 264.888 91C266.275 91 267.531 91.4767 268.658 92.43C269.785 93.73 270.348 95.1167 270.348 96.59C270.348 98.2367 269.741 100.273 268.528 102.7C267.835 104.607 266.708 107.033 265.148 109.98C263.935 112.147 263.198 113.577 262.938 114.27C263.978 112.883 266.231 110.283 269.698 106.47C270.738 105.343 271.735 104.433 272.688 103.74C273.641 102.96 275.071 101.963 276.978 100.75C278.885 99.3633 280.401 98.41 281.528 97.89C282.655 97.2833 283.955 96.98 285.428 96.98C286.121 96.98 286.641 97.0233 286.988 97.11C288.115 97.0233 289.285 97.76 290.498 99.32C291.798 100.88 292.448 102.657 292.448 104.65C292.448 105.43 292.318 106.21 292.058 106.99C291.018 106.817 290.281 106.73 289.848 106.73C288.115 106.73 286.555 107.077 285.168 107.77C283.868 108.463 282.785 109.157 281.918 109.85C281.051 110.457 280.488 110.847 280.228 111.02C277.195 113.013 273.598 115.7 269.438 119.08C267.358 120.813 265.798 122.33 264.758 123.63C263.718 124.93 262.895 126.317 262.288 127.79C262.115 128.31 261.291 130.347 259.818 133.9C258.345 137.367 257.218 139.403 256.438 140.01C256.005 140.963 254.878 141.44 253.058 141.44C252.105 141.44 251.411 141.31 250.978 141.05ZM325.514 143.78C324.907 144.127 324.084 143.997 323.044 143.39C322.09 142.783 321.137 141.873 320.184 140.66C319.49 139.533 319.014 138.45 318.754 137.41C318.494 136.283 318.364 134.68 318.364 132.6L318.494 129.61C318.494 128.83 318.364 128.44 318.104 128.44C317.844 128.44 317.237 128.873 316.284 129.74C315.417 130.52 314.29 131.56 312.904 132.86C310.304 135.373 308.094 137.323 306.274 138.71C304.54 140.01 303.11 140.617 301.984 140.53C301.03 140.53 299.687 139.707 297.954 138.06C296.22 136.327 295.05 134.68 294.444 133.12C294.184 132.08 294.054 130.91 294.054 129.61C294.054 125.623 294.92 120.77 296.654 115.05C298.387 109.33 300.424 104.39 302.764 100.23C305.104 95.9833 307.054 93.9467 308.614 94.12C310 94.2933 311.214 94.9867 312.254 96.2C313.38 97.3267 314.29 98.7133 314.984 100.36C315.244 100.88 315.374 101.313 315.374 101.66C315.374 102.267 315.027 102.873 314.334 103.48C313.034 105.213 311.387 108.073 309.394 112.06C307.4 115.96 305.797 119.557 304.584 122.85C303.37 126.057 303.067 127.66 303.674 127.66C304.887 127.66 305.97 127.357 306.924 126.75C307.964 126.143 309.307 125.06 310.954 123.5C314.074 120.38 317.107 116.393 320.054 111.54C323.694 105.733 325.687 102.353 326.034 101.4L327.464 98.8C328.33 97.0667 328.98 95.94 329.414 95.42C329.847 94.8133 330.367 94.4233 330.974 94.25H333.964C334.484 94.3367 335.09 94.7267 335.784 95.42C336.564 95.7667 337.3 96.2433 337.994 96.85C338.687 97.4567 339.034 97.9767 339.034 98.41L336.954 103.22L335.784 105.95C333.444 111.15 331.667 115.31 330.454 118.43C329.24 121.463 328.33 124.627 327.724 127.92C327.637 128.353 327.594 129.09 327.594 130.13C327.594 132.73 327.854 134.55 328.374 135.59C329.154 137.15 329.934 138.277 330.714 138.97C331.407 139.49 331.407 140.14 330.714 140.92C330.02 141.613 329.024 142.263 327.724 142.87C326.51 143.477 325.774 143.78 325.514 143.78ZM355.039 144.95C352.959 144.95 350.792 144.517 348.539 143.65C346.372 142.783 344.509 141.743 342.949 140.53C341.476 139.23 340.739 138.06 340.739 137.02C340.739 135.98 341.216 135.33 342.169 135.07L342.819 134.55C342.992 134.463 343.339 134.42 343.859 134.42C344.206 134.333 344.639 134.377 345.159 134.55C345.679 134.637 346.112 134.68 346.459 134.68C347.066 134.853 347.976 135.027 349.189 135.2L352.569 135.59C354.302 135.59 355.906 135.417 357.379 135.07C358.939 134.723 359.719 134.333 359.719 133.9C359.719 133.64 359.372 133.207 358.679 132.6C357.986 131.993 357.249 131.69 356.469 131.69C356.469 131.343 355.126 130.173 352.439 128.18C350.966 127.053 349.536 125.927 348.149 124.8C346.849 123.673 346.199 122.85 346.199 122.33L346.329 122.07V121.42C345.722 121.42 345.159 120.597 344.639 118.95C344.119 117.303 343.859 115.7 343.859 114.14C343.859 111.193 345.159 107.943 347.759 104.39C350.359 100.837 353.566 97.63 357.379 94.77C361.279 91.91 364.962 89.96 368.429 88.92C369.729 88.3133 371.636 88.01 374.149 88.01C375.796 88.01 376.922 88.1833 377.529 88.53L378.569 88.27C379.609 88.27 380.952 89.1367 382.599 90.87C384.246 92.6033 385.286 93.99 385.719 95.03C385.719 97.89 385.632 100.187 385.459 101.92C385.286 103.653 384.852 104.52 384.159 104.52C384.072 104.52 383.942 104.563 383.769 104.65C383.596 104.737 383.509 104.953 383.509 105.3C383.509 106.513 382.426 107.857 380.259 109.33C378.179 110.803 376.272 111.54 374.539 111.54L374.019 111.41C373.499 111.323 372.719 110.803 371.679 109.85C370.726 108.897 370.249 107.943 370.249 106.99C370.249 106.73 370.769 106.037 371.809 104.91C372.849 103.783 373.716 102.7 374.409 101.66C375.189 100.533 375.579 99.3633 375.579 98.15C375.579 97.7167 375.406 97.4567 375.059 97.37C374.799 97.1967 374.236 97.11 373.369 97.11C368.602 99.2767 365.179 101.313 363.099 103.22C362.839 103.74 362.579 104.13 362.319 104.39C362.146 104.65 361.886 104.78 361.539 104.78C361.539 104.693 361.496 104.65 361.409 104.65C361.236 104.65 360.672 105.17 359.719 106.21C358.766 107.163 357.856 108.29 356.989 109.59C356.209 110.89 355.732 112.103 355.559 113.23L355.299 113.62V114.27C355.212 114.443 355.169 114.79 355.169 115.31C355.169 116.09 355.516 116.913 356.209 117.78C356.902 118.56 358.289 119.687 360.369 121.16C364.269 124.107 366.912 126.317 368.299 127.79C369.772 129.177 370.682 130.433 371.029 131.56C371.809 133.12 372.199 134.507 372.199 135.72C372.199 138.667 370.639 140.963 367.519 142.61C364.486 144.17 360.326 144.95 355.039 144.95ZM429.218 140.92C427.312 141.787 425.665 142.22 424.278 142.22C421.765 142.22 419.728 141.223 418.168 139.23C416.608 137.237 415.828 134.333 415.828 130.52C415.828 126.707 416.565 122.59 418.038 118.17C418.298 117.563 418.645 116.827 419.078 115.96C419.512 115.093 419.598 114.66 419.338 114.66C418.905 114.66 418.125 115.223 416.998 116.35C412.752 120.163 409.198 124.15 406.338 128.31C403.565 132.383 402.178 135.547 402.178 137.8C402.178 138.753 401.788 139.49 401.008 140.01C400.315 140.53 399.492 140.79 398.538 140.79C397.932 140.79 397.368 140.66 396.848 140.4C394.942 139.273 393.382 137.713 392.168 135.72C390.955 133.64 390.478 131.127 390.738 128.18C391.085 122.2 391.692 116.957 392.558 112.45C393.512 107.857 395.288 101.357 397.888 92.95C397.975 92.69 398.798 90.48 400.358 86.32C403.045 78.6933 404.562 74.5333 404.908 73.84C405.515 73.2333 406.382 71.37 407.508 68.25C408.722 65.0433 409.328 63.0933 409.328 62.4C409.328 61.7067 409.502 61.0567 409.848 60.45C410.282 59.7567 410.542 59.3233 410.628 59.15C411.582 56.9833 412.405 55.9 413.098 55.9C413.878 55.9 415.092 56.42 416.738 57.46C418.472 58.4133 419.468 59.3233 419.728 60.19C420.422 61.5767 420.768 62.8767 420.768 64.09C420.768 65.39 420.422 66.95 419.728 68.77C419.035 70.5033 417.865 72.93 416.218 76.05C413.705 81.0767 411.365 86.84 409.198 93.34C408.158 96.1133 406.902 100.057 405.428 105.17C403.955 110.283 403.218 113.317 403.218 114.27C403.218 114.877 403.522 115.18 404.128 115.18C404.822 115.18 405.558 114.66 406.338 113.62C406.598 113.1 407.162 112.45 408.028 111.67C408.895 110.89 409.588 110.197 410.108 109.59C411.928 107.337 414.008 105.083 416.348 102.83C418.688 100.577 420.465 99.45 421.678 99.45C424.798 99.45 427.138 101.4 428.698 105.3C429.045 105.647 429.305 105.993 429.478 106.34C429.652 106.687 429.825 106.947 429.998 107.12C430.432 107.553 430.648 108.637 430.648 110.37C430.648 113.317 429.955 116.87 428.568 121.03C427.615 124.843 427.138 127.443 427.138 128.83C427.138 129.957 427.442 130.52 428.048 130.52C428.308 130.347 428.828 130.043 429.608 129.61C430.388 129.177 431.298 128.657 432.338 128.05C434.245 126.923 435.762 126.36 436.888 126.36C437.755 126.36 438.405 126.62 438.838 127.14C439.272 127.573 439.488 128.137 439.488 128.83C439.488 129.437 439.185 130.347 438.578 131.56C438.058 132.773 437.798 133.467 437.798 133.64V134.29C437.798 134.637 436.628 135.763 434.288 137.67C431.948 139.577 430.258 140.66 429.218 140.92ZM488.224 139.1C486.924 139.1 485.624 138.753 484.324 138.06C483.024 137.367 481.984 136.327 481.204 134.94L480.554 133.64C479.514 130.693 478.994 127.833 478.994 125.06V119.34C478.994 118.387 478.907 117.91 478.734 117.91C478.041 117.91 475.051 120.727 469.764 126.36C466.037 130.26 462.787 133.293 460.014 135.46C457.327 137.54 455.464 138.58 454.424 138.58C454.077 138.58 453.254 138.277 451.954 137.67C450.654 136.977 449.831 136.457 449.484 136.11C448.877 135.503 448.487 134.767 448.314 133.9C448.141 133.033 448.054 131.387 448.054 128.96C448.054 126.187 448.617 123.067 449.744 119.6C450.871 116.047 452.777 111.323 455.464 105.43C456.157 104.217 456.851 102.743 457.544 101.01C459.537 96.5033 461.401 93.3833 463.134 91.65C463.827 91.65 464.304 91.6933 464.564 91.78C465.691 91.8667 466.991 92.3867 468.464 93.34C470.024 94.2933 470.977 95.55 471.324 97.11C471.324 98.5833 471.107 100.057 470.674 101.53C470.241 103.003 469.244 104.823 467.684 106.99C466.731 108.29 465.474 111.107 463.914 115.44C463.481 116.133 462.874 117.217 462.094 118.69C461.401 120.077 461.054 120.857 461.054 121.03C461.141 121.117 461.401 120.943 461.834 120.51C462.267 119.99 462.701 119.513 463.134 119.08L466.644 115.57C473.491 108.723 478.777 105.213 482.504 105.04C484.411 105.04 486.101 106.037 487.574 108.03C489.047 110.023 489.784 112.407 489.784 115.18C489.784 115.7 489.697 117.173 489.524 119.6V127.01C491.517 126.49 493.034 126.013 494.074 125.58C496.241 124.8 498.494 124.323 500.834 124.15C500.661 125.623 499.837 127.573 498.364 130C496.977 132.427 495.331 134.55 493.424 136.37C491.517 138.19 489.784 139.1 488.224 139.1ZM545.942 95.03C547.069 96.2433 547.892 97.2833 548.412 98.15C548.932 98.93 549.192 99.8833 549.192 101.01C549.192 102.83 548.499 104.997 547.112 107.51C546.419 109.503 545.639 111.367 544.772 113.1C543.992 114.833 543.385 115.96 542.952 116.48L539.962 123.37C538.662 126.23 537.059 129.567 535.152 133.38C532.812 138.233 531.165 141.83 530.212 144.17L528.522 146.9C524.189 153.833 520.852 158.687 518.512 161.46C516.605 163.193 514.352 164.97 511.752 166.79C509.152 168.697 507.072 169.78 505.512 170.04C503.865 170.387 502.045 170.56 500.052 170.56C496.499 170.56 493.335 169.953 490.562 168.74C487.789 167.527 486.185 166.053 485.752 164.32L485.492 162.76C485.492 161.287 486.099 160.117 487.312 159.25C488.439 158.47 489.695 158.08 491.082 158.08C491.949 158.08 492.599 158.297 493.032 158.73C493.205 158.817 493.899 159.293 495.112 160.16C496.325 161.027 497.972 161.46 500.052 161.46C503.952 161.46 507.765 158.903 511.492 153.79C515.132 147.983 517.905 143.347 519.812 139.88C518.079 138.84 516.389 137.107 514.742 134.68C513.095 132.167 512.359 130.433 512.532 129.48V128.05C511.839 128.05 511.319 126.75 510.972 124.15C510.712 121.55 510.582 118.343 510.582 114.53C510.582 110.37 510.669 107.467 510.842 105.82C511.189 104.433 511.362 102.743 511.362 100.75C511.449 98.67 511.492 97.3267 511.492 96.72C511.405 95.5067 511.622 94.4667 512.142 93.6C512.749 92.6467 513.312 91.9967 513.832 91.65C514.959 91.2167 515.869 91 516.562 91C520.549 91 522.542 95.2467 522.542 103.74C522.542 105.387 522.499 106.643 522.412 107.51C522.239 111.67 522.152 114.617 522.152 116.35C522.152 123.023 523.062 127.357 524.882 129.35C525.662 127.53 526.312 126.23 526.832 125.45C528.045 122.937 528.739 121.333 528.912 120.64C529.085 120.033 529.562 119.037 530.342 117.65L532.032 114.14C532.205 113.62 532.769 111.973 533.722 109.2C534.675 106.34 535.629 104.043 536.582 102.31C536.929 101.617 537.449 100.62 538.142 99.32C538.835 97.9333 539.399 96.9367 539.832 96.33C540.265 95.7233 540.742 95.3333 541.262 95.16C541.955 94.5533 542.692 94.25 543.472 94.25C544.252 94.25 545.075 94.51 545.942 95.03ZM573.349 88.92C572.309 88.92 571.052 88.4433 569.579 87.49C568.105 86.5367 566.805 85.3233 565.679 83.85C564.639 82.29 564.119 80.73 564.119 79.17C564.119 78.65 565.029 77.0467 566.849 74.36C568.062 72.7133 568.669 71.7167 568.669 71.37C569.275 71.37 570.055 71.5 571.009 71.76C571.962 72.02 572.785 72.3233 573.479 72.67C573.999 73.8833 575.039 75.4433 576.599 77.35C577.639 78.65 578.375 79.7333 578.809 80.6C579.329 81.4667 579.589 82.3767 579.589 83.33C579.589 85.2367 579.069 86.6667 578.029 87.62C577.075 88.4867 575.515 88.92 573.349 88.92ZM555.669 138.71C555.409 138.71 554.759 138.493 553.719 138.06C552.765 137.627 552.115 137.323 551.769 137.15C551.769 136.89 551.639 136.457 551.379 135.85C551.205 135.157 551.119 134.723 551.119 134.55C550.339 134.203 549.689 133.64 549.169 132.86C548.735 131.993 548.649 131.127 548.909 130.26C550.122 128.18 552.289 123.413 555.409 115.96C558.615 108.42 560.392 104.087 560.739 102.96C560.739 101.053 561.345 99.71 562.559 98.93C563.165 98.4967 563.772 98.28 564.379 98.28C565.852 98.28 567.239 99.2767 568.539 101.27C569.839 103.263 570.489 105.603 570.489 108.29C570.489 109.33 569.492 112.32 567.499 117.26C565.592 122.113 563.425 127.01 560.999 131.95C559.612 134.723 558.572 136.543 557.879 137.41C557.272 138.277 556.535 138.71 555.669 138.71Z" fill="black"/>
</svg>
